# xmcd
#
# Track frame offsets: 
#        150
#        16705
#        31408
#        46576
#        57522
#        69711
#        89142
#        102380
#        118190
#        130582
#
# Disc length: 1822 seconds
#
# Revision: 0
# Processed by: cddbd v1.5.2PL0 Copyright (c) Steve Scherf et al.
# Submitted via: ExactAudioCopy v0.99pb5
#
DISCID=85071c0a
DTITLE=Taylor Swift - Leesport Demo CD
DYEAR=1900
DGENRE=Country
TTITLE0=Lucky You
TTITLE1=Smokey Black Nights
TTITLE2=American Boy
TTITLE3=Here You Come Again
TTITLE4=Hopelessly Devoted To You
TTITLE5=Am I Ready For Love
TTITLE6=Can I Go With You
TTITLE7=One Way Ticket
TTITLE8=There's Your Trouble
TTITLE9=Star Spangled Banner
EXTD=
EXTT0=
EXTT1=
EXTT2=
EXTT3=
EXTT4=
EXTT5=
EXTT6=
EXTT7=
EXTT8=
EXTT9=
PLAYORDER=
